<svg width="23" height="23" viewBox="0 0 23 23" fill="none" xmlns="http://www.w3.org/2000/svg">
<path d="M2.8457 3.50195H20.1543C21.1707 3.50195 22 4.3303 22 5.34766V17.6523C22 18.6662 21.1744 19.498 20.1543 19.498H2.8457C1.8318 19.498 1 18.6725 1 17.6523V5.34766C1 4.33375 1.82556 3.50195 2.8457 3.50195ZM3.10057 4.73242L11.4609 13.0928L19.8935 4.73242H3.10057ZM20.7695 17.3976V5.59658L14.8436 11.4717L20.7695 17.3976ZM19.8995 18.2676L13.9698 12.3379L11.8921 14.3978C11.6516 14.6363 11.2635 14.6355 11.0239 14.3959L8.99805 12.3701L3.10053 18.2676H19.8995ZM2.23047 17.3975L8.12798 11.5L2.23047 5.60245V17.3975Z" fill="white"/>
</svg>
