<svg width="23" height="23" viewBox="0 0 23 23" fill="none" xmlns="http://www.w3.org/2000/svg">
<path d="M18.8968 4.04958C16.9222 2.08419 14.2953 1.00112 11.4995 1C8.71002 1 6.07896 2.08211 4.09132 4.04701C2.10015 6.01528 1.00257 8.63099 1 11.4027V11.406V11.4079C1.00032 13.0855 1.4415 14.7779 2.27896 16.3227L1.02871 22L6.7769 20.6937C8.23275 21.4267 9.85715 21.8132 11.4955 21.8138H11.4997C14.2887 21.8138 16.9198 20.7316 18.9077 18.7665C20.9007 16.7966 21.9987 14.1843 22 11.4108C22.0008 8.65678 20.8989 6.04252 18.8968 4.04958V4.04958ZM11.4995 20.1748H11.4958C10.0247 20.1742 8.56713 19.8052 7.28079 19.1074L7.00896 18.96L3.18666 19.8286L4.01691 16.059L3.85686 15.7832C3.06109 14.4123 2.6406 12.8989 2.6406 11.4061C2.64365 6.57444 6.61733 2.63902 11.4992 2.63902C13.8576 2.63998 16.0736 3.55338 17.7389 5.21067C19.4294 6.89359 20.36 9.0953 20.3592 11.4103C20.3573 16.2431 16.3828 20.1748 11.4995 20.1748V20.1748Z" fill="white"/>
<path d="M8.36266 6.37256H7.85905C7.68375 6.37256 7.39912 6.43819 7.15837 6.70017C6.91744 6.96233 6.23853 7.59598 6.23853 8.88467C6.23853 10.1734 7.18031 11.4185 7.31156 11.5935C7.44299 11.7683 9.12949 14.4973 11.8006 15.5472C14.0205 16.4196 14.4724 16.2461 14.9541 16.2024C15.4359 16.1589 16.509 15.5689 16.728 14.9574C16.947 14.3458 16.947 13.8215 16.8813 13.712C16.8155 13.6029 16.6402 13.5374 16.3775 13.4065C16.1147 13.2754 14.8267 12.6311 14.5857 12.5435C14.3448 12.4563 14.1697 12.4126 13.9944 12.675C13.8191 12.9368 13.303 13.5425 13.1497 13.7173C12.9965 13.8922 12.8431 13.9142 12.5802 13.7831C12.3174 13.6517 11.4796 13.3702 10.4757 12.4781C9.69435 11.7837 9.15213 10.8983 8.99876 10.6361C8.84557 10.3741 8.98245 10.2323 9.11423 10.1016C9.23232 9.98438 9.39183 9.824 9.52326 9.67116C9.65452 9.51814 9.69189 9.409 9.77963 9.23422C9.8672 9.05945 9.82333 8.90643 9.7577 8.77553C9.69189 8.64445 9.18758 7.34926 8.95384 6.83125H8.95402C8.75713 6.39502 8.5499 6.38028 8.36266 6.37256Z" fill="white"/>
</svg>
