<svg width="39" height="38" viewBox="0 0 39 38" fill="none" xmlns="http://www.w3.org/2000/svg">
<path d="M9.29297 15.7344H1.14258C0.51157 15.7344 0 16.2328 0 16.8477V30.9492C0 31.564 0.51157 32.0625 1.14258 32.0625H9.29297C10.1344 32.0625 10.8164 31.3979 10.8164 30.5781V17.2188C10.8164 16.3989 10.1344 15.7344 9.29297 15.7344Z" fill="white"/>
<path d="M26.8125 12.301V13.5078H32.1445V12.301C34.8752 11.25 36.7148 8.66632 36.7148 5.74373C36.7148 3.52637 35.6588 1.54488 34.0111 0.251396C33.2604 -0.337901 32.1445 0.173689 32.1445 1.11308V4.24852L29.4785 5.73289L26.8125 4.24852V1.11308C26.8125 0.173689 25.6967 -0.337901 24.9459 0.25147C23.2982 1.54488 22.2422 3.52637 22.2422 5.74373C22.2422 8.66632 24.0818 11.25 26.8125 12.301Z" fill="white"/>
<path d="M36.7148 20.1874H35.1914C36.4535 20.1874 37.4766 19.1906 37.4766 17.9609C37.4766 16.7312 36.4535 15.7343 35.1914 15.7343H24.5273V13.6727C23.5299 13.0825 22.6531 12.3173 21.935 11.4076C19.3455 11.8776 17.1475 13.6333 16.1992 16.0971L15.7676 17.2187H13.1016V30.5781H15.7676C16.2152 32.3228 17.8241 33.5468 19.6699 33.5468H33.668C34.9301 33.5468 35.9531 32.55 35.9531 31.3203C35.9531 30.0906 34.9301 29.0937 33.668 29.0937H34.4297H35.1914C36.4535 29.0937 37.4766 28.0969 37.4766 26.8671C37.4766 25.6375 36.4535 24.6406 35.1914 24.6406H36.7148C37.9769 24.6406 39 23.6437 39 22.414C39 21.1843 37.9769 20.1874 36.7148 20.1874Z" fill="white"/>
<path d="M29.4785 38C30.8216 38 31.9322 37.0322 32.117 35.7734H26.8401C27.0249 37.0322 28.1355 38 29.4785 38Z" fill="white"/>
</svg>
