<svg width="36" height="36" viewBox="0 0 36 36" fill="none" xmlns="http://www.w3.org/2000/svg">
<path d="M29.8661 21.1641C30.303 22.389 31.4626 23.2734 32.8359 23.2734C34.5806 23.2734 36 21.854 36 20.1094C36 18.3647 34.5806 16.9453 32.8359 16.9453C31.4626 16.9453 30.303 17.8297 29.8661 19.0547H23.2734V16.9453H24.6473L28.7699 14.1968C29.2981 14.5929 29.9468 14.8359 30.6562 14.8359C32.4009 14.8359 33.8203 13.4165 33.8203 11.6719C33.8203 9.92725 32.4009 8.50781 30.6562 8.50781C28.9116 8.50781 27.4922 9.92725 27.4922 11.6719C27.4922 11.9394 27.5356 12.1948 27.5982 12.4428L24.009 14.8359H0V27.4922H23.2734V25.3828H26.0008L27.8094 27.1914C27.6119 27.604 27.4922 28.0599 27.4922 28.5469C27.4922 30.2915 28.9116 31.7109 30.6562 31.7109C32.4009 31.7109 33.8203 30.2915 33.8203 28.5469C33.8203 26.8022 32.4009 25.3828 30.6562 25.3828C30.1693 25.3828 29.7133 25.5026 29.3008 25.7L26.8742 23.2734H23.2734V21.1641H29.8661ZM6.39844 23.2734H4.28906V16.9453H6.39844V23.2734Z" fill="white"/>
<path d="M0 33.8203H2.17969V36H4.28906V33.8203H19.0547V36H21.1641V33.8203H23.2734V29.6016H0V33.8203Z" fill="white"/>
<path d="M23.2734 0H0V12.7266H23.2734V0ZM6.39844 10.6172H4.28906V4.28906H6.39844V10.6172Z" fill="white"/>
</svg>
