<svg width="35" height="35" viewBox="0 0 35 35" fill="none" xmlns="http://www.w3.org/2000/svg">
<path d="M7.88779 20.5366H8.48558V21.1344H7.88779V20.5366Z" fill="white"/>
<path d="M7.08673 26.371L6.93728 26.5145H15.0612V15.1565C15.0612 14.998 14.9983 14.8459 14.8862 14.7338C14.774 14.6217 14.622 14.5587 14.4635 14.5587H6.0944C5.93586 14.5587 5.78381 14.6217 5.6717 14.7338C5.55959 14.8459 5.49661 14.998 5.49661 15.1565V22.9039C5.7217 22.7232 6.00494 22.6308 6.29326 22.644C6.58158 22.6572 6.85519 22.7751 7.06282 22.9756C7.13469 22.945 7.21186 22.9287 7.28998 22.9278H9.08335C9.24189 22.9278 9.39394 22.9907 9.50605 23.1029C9.61816 23.215 9.68114 23.367 9.68114 23.5256V25.3189C9.68114 25.4775 9.61816 25.6295 9.50605 25.7416C9.39394 25.8537 9.24189 25.9167 9.08335 25.9167H7.43345C7.33534 26.0807 7.21904 26.2331 7.08673 26.371ZM10.8767 16.3521C10.8767 16.1935 10.9397 16.0415 11.0518 15.9294C11.1639 15.8173 11.316 15.7543 11.4745 15.7543H13.2679C13.4264 15.7543 13.5785 15.8173 13.6906 15.9294C13.8027 16.0415 13.8657 16.1935 13.8657 16.3521V18.1455C13.8657 18.304 13.8027 18.456 13.6906 18.5682C13.5785 18.6803 13.4264 18.7432 13.2679 18.7432H11.4745C11.316 18.7432 11.1639 18.6803 11.0518 18.5682C10.9397 18.456 10.8767 18.304 10.8767 18.1455V16.3521ZM10.8767 19.9388C10.8767 19.7803 10.9397 19.6282 11.0518 19.5161C11.1639 19.404 11.316 19.341 11.4745 19.341H13.2679C13.4264 19.341 13.5785 19.404 13.6906 19.5161C13.8027 19.6282 13.8657 19.7803 13.8657 19.9388V21.7322C13.8657 21.8907 13.8027 22.0428 13.6906 22.1549C13.5785 22.267 13.4264 22.33 13.2679 22.33H11.4745C11.316 22.33 11.1639 22.267 11.0518 22.1549C10.9397 22.0428 10.8767 21.8907 10.8767 21.7322V19.9388ZM10.8767 23.5256C10.8767 23.367 10.9397 23.215 11.0518 23.1029C11.1639 22.9907 11.316 22.9278 11.4745 22.9278H13.2679C13.4264 22.9278 13.5785 22.9907 13.6906 23.1029C13.8027 23.215 13.8657 23.367 13.8657 23.5256V25.3189C13.8657 25.4775 13.8027 25.6295 13.6906 25.7416C13.5785 25.8537 13.4264 25.9167 13.2679 25.9167H11.4745C11.316 25.9167 11.1639 25.8537 11.0518 25.7416C10.9397 25.6295 10.8767 25.4775 10.8767 25.3189V23.5256ZM6.69219 16.3521C6.69219 16.1935 6.75517 16.0415 6.86728 15.9294C6.97939 15.8173 7.13144 15.7543 7.28998 15.7543H9.08335C9.24189 15.7543 9.39394 15.8173 9.50605 15.9294C9.61816 16.0415 9.68114 16.1935 9.68114 16.3521V18.1455C9.68114 18.304 9.61816 18.456 9.50605 18.5682C9.39394 18.6803 9.24189 18.7432 9.08335 18.7432H7.28998C7.13144 18.7432 6.97939 18.6803 6.86728 18.5682C6.75517 18.456 6.69219 18.304 6.69219 18.1455V16.3521ZM9.08335 22.33H7.28998C7.13144 22.33 6.97939 22.267 6.86728 22.1549C6.75517 22.0428 6.69219 21.8907 6.69219 21.7322V19.9388C6.69219 19.7803 6.75517 19.6282 6.86728 19.5161C6.97939 19.404 7.13144 19.341 7.28998 19.341H9.08335C9.24189 19.341 9.39394 19.404 9.50605 19.5161C9.61816 19.6282 9.68114 19.7803 9.68114 19.9388V21.7322C9.68114 21.8907 9.61816 22.0428 9.50605 22.1549C9.39394 22.267 9.24189 22.33 9.08335 22.33Z" fill="white"/>
<path d="M16.2568 15.1565V29.5035C16.2554 29.9786 16.066 30.434 15.73 30.77C15.394 31.106 14.9387 31.2954 14.4635 31.2968H9.68115C9.68115 31.4554 9.74413 31.6074 9.85624 31.7195C9.96835 31.8316 10.1204 31.8946 10.2789 31.8946H21.6369V0.80957H10.2789C10.1204 0.80957 9.96835 0.872552 9.85624 0.984659C9.74413 1.09677 9.68115 1.24882 9.68115 1.40736V8.0219C10.4832 7.93085 11.2955 8.02174 12.0577 8.28782C12.8198 8.55391 13.5121 8.98833 14.0833 9.55881C14.1404 9.61396 14.1859 9.67992 14.2172 9.75285C14.2486 9.82579 14.2651 9.90423 14.2657 9.9836C14.2664 10.063 14.2513 10.1417 14.2213 10.2152C14.1912 10.2886 14.1468 10.3554 14.0907 10.4115C14.0346 10.4676 13.9678 10.512 13.8943 10.5421C13.8209 10.5721 13.7422 10.5873 13.6628 10.5866C13.5834 10.5859 13.505 10.5694 13.432 10.5381C13.3591 10.5067 13.2931 10.4612 13.238 10.4041C12.7776 9.94471 12.2163 9.59915 11.5988 9.39491C10.9813 9.19067 10.3247 9.13339 9.68115 9.22764V10.4376C10.165 10.3383 10.6659 10.3605 11.1391 10.5021C11.6123 10.6438 12.043 10.9005 12.3927 11.2494C12.4498 11.3045 12.4954 11.3705 12.5267 11.4434C12.558 11.5163 12.5745 11.5948 12.5752 11.6741C12.5759 11.7535 12.5608 11.8322 12.5307 11.9057C12.5006 11.9792 12.4563 12.0459 12.4001 12.102C12.344 12.1582 12.2773 12.2026 12.2038 12.2326C12.1303 12.2627 12.0516 12.2778 11.9722 12.2771C11.8929 12.2764 11.8144 12.2599 11.7415 12.2286C11.6686 12.1973 11.6026 12.1517 11.5474 12.0946C11.3076 11.8559 11.005 11.6899 10.6747 11.6158C10.3445 11.5418 10 11.5627 9.68115 11.6762V13.3631H14.4635C14.9387 13.3646 15.394 13.554 15.73 13.89C16.066 14.226 16.2554 14.6813 16.2568 15.1565ZM21.0391 15.7543V17.5477C21.0391 17.7062 20.9762 17.8583 20.8641 17.9704C20.752 18.0825 20.5999 18.1455 20.4414 18.1455C20.2828 18.1455 20.1308 18.0825 20.0187 17.9704C19.9065 17.8583 19.8436 17.7062 19.8436 17.5477V15.7543C19.8436 15.5958 19.9065 15.4437 20.0187 15.3316C20.1308 15.2195 20.2828 15.1565 20.4414 15.1565C20.5999 15.1565 20.752 15.2195 20.8641 15.3316C20.9762 15.4437 21.0391 15.5958 21.0391 15.7543ZM12.6701 6.78746C12.5116 6.78746 12.3595 6.72448 12.2474 6.61237C12.1353 6.50027 12.0723 6.34822 12.0723 6.18967V2.60294C12.0723 2.44439 12.1353 2.29234 12.2474 2.18024C12.3595 2.06813 12.5116 2.00515 12.6701 2.00515H19.8436C20.0021 2.00515 20.1542 2.06813 20.2663 2.18024C20.3784 2.29234 20.4414 2.44439 20.4414 2.60294V6.18967C20.4414 6.34822 20.3784 6.50027 20.2663 6.61237C20.1542 6.72448 20.0021 6.78746 19.8436 6.78746H12.6701Z" fill="white"/>
<path d="M8.16517 12.0947C8.27727 12.2068 8.42929 12.2697 8.5878 12.2697C8.74632 12.2697 8.89834 12.2068 9.01044 12.0947C9.19976 11.9066 9.42901 11.7636 9.68116 11.6762V10.4376C9.10691 10.553 8.57953 10.8354 8.16517 11.2494C8.0531 11.3615 7.99014 11.5135 7.99014 11.6721C7.99014 11.8306 8.0531 11.9826 8.16517 12.0947Z" fill="white"/>
<path d="M6.47457 9.55877C6.36568 9.67151 6.30542 9.82251 6.30679 9.97925C6.30815 10.136 6.37102 10.2859 6.48185 10.3968C6.59269 10.5076 6.74262 10.5705 6.89936 10.5718C7.0561 10.5732 7.2071 10.5129 7.31984 10.404C7.95848 9.76613 8.78724 9.35322 9.68111 9.22759V8.02185C8.46835 8.15379 7.33705 8.69603 6.47457 9.55877Z" fill="white"/>
<path d="M13.2679 5.59196H19.2457V3.20081H13.2679V5.59196ZM17.4524 3.79859H18.0502C18.2087 3.79859 18.3608 3.86158 18.4729 3.97368C18.585 4.08579 18.648 4.23784 18.648 4.39638C18.648 4.55493 18.585 4.70698 18.4729 4.81908C18.3608 4.93119 18.2087 4.99417 18.0502 4.99417H17.4524C17.2938 4.99417 17.1418 4.93119 17.0297 4.81908C16.9176 4.70698 16.8546 4.55493 16.8546 4.39638C16.8546 4.23784 16.9176 4.08579 17.0297 3.97368C17.1418 3.86158 17.2938 3.79859 17.4524 3.79859ZM14.4634 3.79859H15.0612C15.2198 3.79859 15.3718 3.86158 15.4839 3.97368C15.596 4.08579 15.659 4.23784 15.659 4.39638C15.659 4.55493 15.596 4.70698 15.4839 4.81908C15.3718 4.93119 15.2198 4.99417 15.0612 4.99417H14.4634C14.3049 4.99417 14.1528 4.93119 14.0407 4.81908C13.9286 4.70698 13.8656 4.55493 13.8656 4.39638C13.8656 4.23784 13.9286 4.08579 14.0407 3.97368C14.1528 3.86158 14.3049 3.79859 14.4634 3.79859Z" fill="white"/>
<path d="M7.88779 24.1234H8.48558V24.7212H7.88779V24.1234Z" fill="white"/>
<path d="M7.88779 16.95H8.48558V17.5477H7.88779V16.95Z" fill="white"/>
<path d="M12.0723 16.95H12.6701V17.5477H12.0723V16.95Z" fill="white"/>
<path d="M14.4634 30.1012C14.622 30.1012 14.774 30.0383 14.8861 29.9262C14.9982 29.814 15.0612 29.662 15.0612 29.5035V27.7101H5.93896C5.93896 27.728 5.927 27.746 5.927 27.7579C5.92848 27.8318 5.94456 27.9048 5.97431 27.9725C6.00406 28.0402 6.0469 28.1013 6.10036 28.1524L6.1721 28.2182C6.35193 28.3814 6.49663 28.5795 6.59735 28.8005C6.69808 29.0215 6.75271 29.2607 6.75793 29.5035C6.75678 29.7064 6.72452 29.908 6.66228 30.1012H14.4634ZM9.68112 28.3079H10.8767C11.0352 28.3079 11.1873 28.3709 11.2994 28.483C11.4115 28.5951 11.4745 28.7471 11.4745 28.9057C11.4745 29.0642 11.4115 29.2163 11.2994 29.3284C11.1873 29.4405 11.0352 29.5035 10.8767 29.5035H9.68112C9.52257 29.5035 9.37052 29.4405 9.25842 29.3284C9.14631 29.2163 9.08333 29.0642 9.08333 28.9057C9.08333 28.7471 9.14631 28.5951 9.25842 28.483C9.37052 28.3709 9.52257 28.3079 9.68112 28.3079Z" fill="white"/>
<path d="M12.0723 24.1234H12.6701V24.7212H12.0723V24.1234Z" fill="white"/>
<path d="M12.0723 20.5366H12.6701V21.1344H12.0723V20.5366Z" fill="white"/>
<path d="M34.1905 31.2968V1.40736C34.1905 1.24882 34.1275 1.09677 34.0154 0.984659C33.9033 0.872552 33.7512 0.80957 33.5927 0.80957H22.8325V31.8946H33.5927C33.7512 31.8946 33.9033 31.8316 34.0154 31.7195C34.1275 31.6074 34.1905 31.4554 34.1905 31.2968ZM24.6259 17.5477C24.6259 17.7062 24.5629 17.8583 24.4508 17.9704C24.3387 18.0825 24.1866 18.1455 24.0281 18.1455C23.8695 18.1455 23.7175 18.0825 23.6054 17.9704C23.4933 17.8583 23.4303 17.7062 23.4303 17.5477V15.7543C23.4303 15.5958 23.4933 15.4437 23.6054 15.3316C23.7175 15.2195 23.8695 15.1565 24.0281 15.1565C24.1866 15.1565 24.3387 15.2195 24.4508 15.3316C24.5629 15.4437 24.6259 15.5958 24.6259 15.7543V17.5477ZM32.9949 12.7654C32.9949 12.9239 32.9319 13.0759 32.8198 13.1881C32.7077 13.3002 32.5557 13.3631 32.3971 13.3631H25.2236C25.0651 13.3631 24.9131 13.3002 24.8009 13.1881C24.6888 13.0759 24.6259 12.9239 24.6259 12.7654V7.98304C24.6259 7.8245 24.6888 7.67245 24.8009 7.56034C24.9131 7.44823 25.0651 7.38525 25.2236 7.38525H32.3971C32.5557 7.38525 32.7077 7.44823 32.8198 7.56034C32.9319 7.67245 32.9949 7.8245 32.9949 7.98304V12.7654ZM32.3971 6.78746H25.2236C25.0651 6.78746 24.9131 6.72448 24.8009 6.61237C24.6888 6.50027 24.6259 6.34822 24.6259 6.18967C24.6259 6.03113 24.6888 5.87908 24.8009 5.76697C24.9131 5.65486 25.0651 5.59188 25.2236 5.59188H32.3971C32.5557 5.59188 32.7077 5.65486 32.8198 5.76697C32.9319 5.87908 32.9949 6.03113 32.9949 6.18967C32.9949 6.34822 32.9319 6.50027 32.8198 6.61237C32.7077 6.72448 32.5557 6.78746 32.3971 6.78746Z" fill="white"/>
<path d="M7.08673 32.3908L7.83994 31.4463C7.87581 31.3985 7.89972 31.3447 7.92961 31.2968H6.0944C5.98795 31.2941 5.88194 31.2821 5.77757 31.261L4.72546 32.3191C4.61214 32.4302 4.45975 32.4924 4.30103 32.4924C4.14231 32.4924 3.98992 32.4302 3.8766 32.3191C3.7646 32.2062 3.70176 32.0536 3.70176 31.8946C3.70176 31.7356 3.7646 31.5831 3.8766 31.4702L5.38303 29.9638C5.4413 29.9073 5.48731 29.8393 5.51816 29.7643C5.54902 29.6892 5.56407 29.6085 5.56236 29.5274C5.56067 29.4468 5.54226 29.3675 5.5083 29.2945C5.47434 29.2214 5.42558 29.1562 5.36509 29.103L5.28738 29.0312C4.96896 28.7374 4.77256 28.3347 4.73713 27.9028C4.7017 27.471 4.82982 27.0416 5.09609 26.6998C5.10207 26.6939 5.10207 26.6879 5.10805 26.6879C5.14722 26.6269 5.19336 26.5708 5.24554 26.5205L6.23787 25.5222C6.3487 25.4116 6.43663 25.2802 6.49663 25.1356C6.55662 24.9909 6.58751 24.8359 6.58751 24.6793C6.58751 24.5227 6.55662 24.3677 6.49663 24.2231C6.43663 24.0784 6.3487 23.947 6.23787 23.8364L3.73313 26.3412C3.67739 26.3969 3.61122 26.4411 3.5384 26.4713C3.46558 26.5014 3.38752 26.517 3.3087 26.517C3.22988 26.517 3.15182 26.5014 3.079 26.4713C3.00618 26.4411 2.94001 26.3969 2.88427 26.3412C2.82853 26.2854 2.78432 26.2193 2.75415 26.1464C2.72399 26.0736 2.70846 25.9956 2.70846 25.9167C2.70846 25.8379 2.72399 25.7599 2.75415 25.687C2.78432 25.6142 2.82853 25.548 2.88427 25.4923L4.30103 24.0815V21.3795L1.24035 24.4462C0.903931 24.7822 0.714713 25.238 0.714294 25.7135V34.8836H6.69219V33.5087C6.69145 33.1018 6.83077 32.7071 7.08673 32.3908Z" fill="white"/>
<path d="M30.6038 10.3742C30.6038 10.5327 30.5408 10.6848 30.4287 10.7969C30.3166 10.909 30.1645 10.972 30.006 10.972H27.6148C27.4563 10.972 27.3042 10.909 27.1921 10.7969C27.08 10.6848 27.017 10.5327 27.017 10.3742V8.58081H25.8214V12.1675H31.7993V8.58081H30.6038V10.3742Z" fill="white"/>
<path d="M30.006 33.0902H31.7993V34.2858H30.006V33.0902Z" fill="white"/>
<path d="M12.6701 33.0902H14.4634V34.2858H12.6701V33.0902Z" fill="white"/>
<path d="M28.2126 8.58081H29.4082V9.77639H28.2126V8.58081Z" fill="white"/>
</svg>
