<svg width="38" height="38" viewBox="0 0 38 38" fill="none" xmlns="http://www.w3.org/2000/svg">
<path d="M5.84375 24.3438V25.5312H13.1237C13.061 25.1379 13.0194 24.7415 12.999 24.3438H5.84375Z" fill="white"/>
<path d="M21.2812 12.8784V4.15625H15.3438V16.8512C16.841 14.9195 18.9244 13.5255 21.2812 12.8784Z" fill="white"/>
<path d="M10 7.71875H8.8125V6.53125H7.03125V11.2812H8.66406L8.21875 9.5H10.5938L10.1484 11.2812H11.7812V6.53125H10V7.71875Z" fill="white"/>
<path d="M13.3784 26.7188H4.65625V27.9062H6.4375C6.59497 27.9062 6.74599 27.9688 6.85734 28.0802C6.96869 28.1915 7.03125 28.3425 7.03125 28.5V32.0625C7.03125 32.22 6.96869 32.371 6.85734 32.4823C6.74599 32.5937 6.59497 32.6562 6.4375 32.6562H4.65625V36.2188H22.4688V34.8763C20.331 34.5309 18.3376 33.5784 16.7259 32.1321C15.1143 30.6858 13.9523 28.8068 13.3784 26.7188V26.7188Z" fill="white"/>
<path d="M14.1562 18.7423V3.5625C14.1562 3.40503 14.2188 3.25401 14.3302 3.14266C14.4415 3.03131 14.5925 2.96875 14.75 2.96875H21.875C22.0325 2.96875 22.1835 3.03131 22.2948 3.14266C22.4062 3.25401 22.4688 3.40503 22.4688 3.5625V12.6237C22.8621 12.561 23.2585 12.5194 23.6562 12.499V1.78125H4.65625V23.1562H12.999C13.0772 21.621 13.4711 20.1184 14.1562 18.7423V18.7423ZM12.9688 11.875C12.9688 12.0325 12.9062 12.1835 12.7948 12.2948C12.6835 12.4062 12.5325 12.4688 12.375 12.4688H6.4375C6.28003 12.4688 6.12901 12.4062 6.01766 12.2948C5.90631 12.1835 5.84375 12.0325 5.84375 11.875V3.5625C5.84375 3.40503 5.90631 3.25401 6.01766 3.14266C6.12901 3.03131 6.28003 2.96875 6.4375 2.96875H12.375C12.5325 2.96875 12.6835 3.03131 12.7948 3.14266C12.9062 3.25401 12.9688 3.40503 12.9688 3.5625V11.875Z" fill="white"/>
<path d="M11.7812 4.15625H7.03125V5.34375H11.7812V4.15625Z" fill="white"/>
<path d="M5.84375 29.0938H4.65625V31.4688H5.84375V29.0938Z" fill="white"/>
<path d="M26.0309 23.9961L24.4955 25.5315L28.9996 30.0356L30.535 28.5002L26.0309 23.9961Z" fill="white"/>
<path d="M24.25 13.6562C22.2536 13.6563 20.3021 14.2482 18.6422 15.3574C16.9823 16.4665 15.6886 18.0429 14.9246 19.8873C14.1606 21.7317 13.9607 23.7612 14.3502 25.7192C14.7397 27.6772 15.701 29.4757 17.1126 30.8874C18.5243 32.299 20.3228 33.2603 22.2808 33.6498C24.2388 34.0393 26.2683 33.8394 28.1127 33.0754C29.9571 32.3114 31.5335 31.0177 32.6427 29.3578C33.7518 27.6979 34.3438 25.7464 34.3438 23.75C34.3408 21.0739 33.2764 18.5082 31.3841 16.6159C29.4918 14.7236 26.9261 13.6592 24.25 13.6562V13.6562ZM31.7948 28.9198L29.4198 31.2948C29.3084 31.4061 29.1574 31.4686 29 31.4686C28.8426 31.4686 28.6916 31.4061 28.5802 31.2948L23.9531 26.6677L23.5488 27.0726C23.619 27.345 23.6551 27.625 23.6563 27.9062C23.6605 28.4787 23.5257 29.0437 23.2635 29.5526C23.0012 30.0615 22.6193 30.4991 22.1506 30.8279C21.6818 31.1566 21.1403 31.3666 20.5725 31.4399C20.0047 31.5131 19.4276 31.4475 18.8908 31.2485C18.7966 31.2147 18.7124 31.1576 18.6461 31.0826C18.5799 31.0075 18.5337 30.9169 18.5118 30.8192C18.4899 30.7215 18.4931 30.6199 18.5211 30.5237C18.5491 30.4276 18.6009 30.3401 18.6717 30.2694L20.0938 28.8479V27.9062H19.1521L17.7306 29.3313C17.6599 29.4021 17.5724 29.4539 17.4763 29.4819C17.3801 29.5098 17.2785 29.513 17.1808 29.4912C17.0831 29.4693 16.9925 29.4231 16.9174 29.3568C16.8424 29.2906 16.7853 29.2064 16.7515 29.1122C16.5519 28.5752 16.4858 27.9978 16.5587 27.4296C16.6317 26.8614 16.8416 26.3194 17.1704 25.8503C17.4992 25.3812 17.9371 24.999 18.4463 24.7365C18.9555 24.4741 19.5209 24.3393 20.0938 24.3438C20.3742 24.3451 20.6534 24.3812 20.925 24.4512L21.6292 23.75L21.0354 23.1562H20.0938C19.9363 23.1562 19.7853 23.0936 19.674 22.9823L16.7052 20.0135C16.5939 19.9022 16.5314 19.7512 16.5314 19.5938C16.5314 19.4363 16.5939 19.2853 16.7052 19.174L19.674 16.2052C19.7853 16.0939 19.9363 16.0314 20.0938 16.0314C20.2512 16.0314 20.4022 16.0939 20.5135 16.2052L23.4823 19.174C23.5936 19.2853 23.6562 19.4363 23.6563 19.5938V20.5354L24.25 21.1292L24.9512 20.425C24.8812 20.1534 24.8451 19.8742 24.8438 19.5938C24.8412 19.0218 24.977 18.4578 25.2398 17.9498C25.5025 17.4418 25.8843 17.0049 26.3525 16.6766C26.8208 16.3482 27.3615 16.138 27.9287 16.064C28.4958 15.99 29.0724 16.0543 29.6092 16.2515C29.7037 16.285 29.7881 16.3418 29.8547 16.4167C29.9213 16.4916 29.9678 16.5822 29.99 16.6799C30.0122 16.7776 30.0093 16.8794 29.9815 16.9757C29.9537 17.072 29.902 17.1597 29.8313 17.2306L28.4063 18.6521V19.5938H29.3479L30.7694 18.1717C30.8401 18.1009 30.9276 18.0491 31.0237 18.0211C31.1199 17.9931 31.2215 17.9899 31.3192 18.0118C31.4169 18.0337 31.5075 18.0799 31.5826 18.1461C31.6576 18.2124 31.7147 18.2966 31.7485 18.3908C31.9475 18.9276 32.0131 19.5047 31.9399 20.0725C31.8666 20.6403 31.6566 21.1818 31.3279 21.6506C30.9991 22.1193 30.5615 22.5012 30.0526 22.7635C29.5437 23.0257 28.9787 23.1605 28.4063 23.1562C28.1258 23.1549 27.8466 23.1188 27.575 23.0488L27.1701 23.4531L31.7972 28.0802C31.9082 28.1919 31.9703 28.3431 31.9698 28.5005C31.9694 28.6579 31.9064 28.8088 31.7948 28.9198V28.9198Z" fill="white"/>
<path d="M26.3032 22.6385L26.9842 21.9569C27.0642 21.8776 27.1649 21.8225 27.2747 21.7979C27.3846 21.7733 27.4992 21.7803 27.6053 21.818C27.8614 21.9148 28.1325 21.9658 28.4063 21.9688C28.991 21.968 29.5549 21.752 29.9905 21.3619C30.426 20.9717 30.7027 20.4349 30.7676 19.8538L30.0135 20.6073C29.9022 20.7187 29.7512 20.7812 29.5938 20.7813H27.8125C27.655 20.7813 27.504 20.7187 27.3927 20.6074C27.2813 20.496 27.2188 20.345 27.2188 20.1875V18.4063C27.2188 18.2488 27.2814 18.0978 27.3927 17.9865L28.1462 17.2324C27.5651 17.2974 27.0283 17.574 26.6382 18.0096C26.2481 18.4451 26.032 19.0091 26.0313 19.5938C26.0342 19.8675 26.0852 20.1386 26.1821 20.3947C26.2209 20.5012 26.2284 20.6165 26.2038 20.727C26.1791 20.8376 26.1234 20.9388 26.0431 21.0188L25.0896 21.9688L25.7593 22.6385C25.8431 22.5941 25.9364 22.5708 26.0313 22.5708C26.1261 22.5708 26.2194 22.5941 26.3032 22.6385Z" fill="white"/>
<path d="M22.4687 24.5896L21.5188 25.5432C21.4387 25.6223 21.338 25.6773 21.2282 25.7019C21.1184 25.7265 21.0038 25.7196 20.8977 25.6821C20.6407 25.5849 20.3685 25.5339 20.0937 25.5313C19.509 25.532 18.9451 25.7481 18.5095 26.1382C18.074 26.5283 17.7973 27.0651 17.7324 27.6462L18.4865 26.8928C18.5978 26.7814 18.7488 26.7188 18.9062 26.7188H20.6875C20.845 26.7188 20.996 26.7813 21.1073 26.8927C21.2187 27.004 21.2812 27.1551 21.2812 27.3125V29.0938C21.2812 29.2512 21.2186 29.4022 21.1073 29.5136L20.3538 30.2676C20.9349 30.2027 21.4717 29.9261 21.8618 29.4905C22.2519 29.0549 22.468 28.491 22.4687 27.9063C22.4658 27.6325 22.4148 27.3614 22.3179 27.1053C22.2798 26.9993 22.2726 26.8846 22.2972 26.7746C22.3218 26.6646 22.3772 26.5639 22.4569 26.4843L23.1385 25.8032C23.0941 25.7195 23.0708 25.6261 23.0708 25.5313C23.0708 25.4365 23.0941 25.3431 23.1385 25.2593L22.4687 24.5896Z" fill="white"/>
<path d="M22.6427 21.2011C22.5314 21.0897 22.4688 20.9387 22.4688 20.7813V19.8396L20.0938 17.4646L17.9646 19.5938L20.3396 21.9688H21.2813C21.4387 21.9688 21.5897 22.0314 21.701 22.1428L23.9531 24.3948L24.8948 23.4532L22.6427 21.2011Z" fill="white"/>
</svg>
