<svg width="14" height="14" viewBox="0 0 14 14" fill="none" xmlns="http://www.w3.org/2000/svg">
<path d="M2.78418 0.5H2.12408C1.8943 0.5 1.52124 0.586412 1.20567 0.931366C0.889881 1.27655 0 2.11086 0 3.80768C0 5.50449 1.23443 7.144 1.40647 7.37436C1.57874 7.60448 3.7893 11.1977 7.2904 12.5801C10.2002 13.7289 10.7924 13.5003 11.4238 13.4428C12.0554 13.3855 13.4618 12.6087 13.7489 11.8035C14.0359 10.9983 14.0359 10.308 13.9499 10.1638C13.8637 10.0201 13.6339 9.9339 13.2896 9.76154C12.945 9.58895 11.2568 8.74054 10.941 8.62525C10.6252 8.51042 10.3957 8.45289 10.1659 8.7983C9.93612 9.14303 9.25968 9.9406 9.05866 10.1707C8.85787 10.4011 8.65685 10.43 8.3123 10.2574C7.96776 10.0843 6.86972 9.71371 5.55388 8.53907C4.52968 7.62481 3.81897 6.45895 3.61794 6.11376C3.41715 5.76881 3.59655 5.58212 3.76929 5.40999C3.92408 5.25565 4.13315 5.04447 4.30542 4.84323C4.47747 4.64176 4.52646 4.49805 4.64146 4.26792C4.75623 4.0378 4.69873 3.83633 4.61271 3.66396C4.52646 3.49137 3.86543 1.78601 3.55906 1.10396H3.55929C3.30123 0.529574 3.0296 0.510166 2.78418 0.5Z" fill="#0CBAD0"/>
</svg>
