<svg width="18" height="18" viewBox="0 0 18 18" fill="none" xmlns="http://www.w3.org/2000/svg">
<path d="M0.0666665 9.21303C0.208419 9.4193 3.61497 14.2501 9.00004 14.2501C13.6209 14.2501 17.7384 9.44704 17.9117 9.24228C18.0294 9.10278 18.0294 8.89803 17.9117 8.75779C17.7384 8.55303 13.6209 3.74995 9.00004 3.74995C4.37921 3.74995 0.261682 8.55303 0.0884292 8.75779C-0.020346 8.88678 -0.0300851 9.07353 0.0666665 9.21303ZM9.00004 4.49995C12.7043 4.49995 16.2264 8.0325 17.1212 9.00002C16.2279 9.96827 12.7096 13.5001 9.00004 13.5001C4.66574 13.5001 1.60643 9.97277 0.859417 9.02027C1.72195 8.08351 5.26425 4.49995 9.00004 4.49995Z" fill="#C0C0C0"/>
<path d="M8.99997 12.0001C10.6545 12.0001 12 10.6546 12 9.00009C12 7.34557 10.6545 6.00005 8.99997 6.00005C7.34545 6.00005 5.99993 7.34557 5.99993 9.00009C5.99993 10.6546 7.34545 12.0001 8.99997 12.0001ZM8.99997 6.75002C10.2405 6.75002 11.25 7.75954 11.25 9.00005C11.25 10.2406 10.2405 11.2501 8.99997 11.2501C7.75946 11.2501 6.74993 10.2406 6.74993 9.00005C6.74993 7.75954 7.75946 6.75002 8.99997 6.75002Z" fill="#C0C0C0"/>
</svg>
