<svg width="26" height="26" viewBox="0 0 26 26" fill="none" xmlns="http://www.w3.org/2000/svg">
<path d="M18.4475 0H7.55259C3.38807 0 0 3.38807 0 7.55259V18.4474C0 22.6119 3.38807 26 7.55259 26H18.4474C19.649 26 20.7981 25.7258 21.863 25.185C22.8776 24.6698 23.7783 23.9171 24.4677 23.0083C24.8066 22.5615 24.7192 21.9244 24.2724 21.5854C23.8256 21.2464 23.1885 21.3337 22.8494 21.7807C21.7944 23.1712 20.19 23.9688 18.4475 23.9688H7.55259C4.50811 23.9688 2.03125 21.4919 2.03125 18.4475V7.55259C2.03125 4.50811 4.50811 2.03125 7.55259 2.03125H18.4474C21.4919 2.03125 23.9688 4.50811 23.9688 7.55259V17.418C23.9688 17.9789 24.4234 18.4336 24.9844 18.4336C25.5453 18.4336 26 17.9789 26 17.418V7.55259C26 3.38807 22.6119 0 18.4475 0Z" fill="white"/>
<path d="M13 5.99219C9.13585 5.99219 5.99219 9.13585 5.99219 13C5.99219 16.8641 9.13585 20.0078 13 20.0078C16.8641 20.0078 20.0078 16.8641 20.0078 13C20.0078 9.13585 16.8641 5.99219 13 5.99219ZM13 17.9766C10.2559 17.9766 8.02344 15.7441 8.02344 13C8.02344 10.2559 10.2559 8.02344 13 8.02344C15.7441 8.02344 17.9766 10.2559 17.9766 13C17.9766 15.7441 15.7441 17.9766 13 17.9766Z" fill="white"/>
<path d="M20.1094 6.90625C20.6703 6.90625 21.125 6.45154 21.125 5.89062C21.125 5.32971 20.6703 4.875 20.1094 4.875C19.5485 4.875 19.0938 5.32971 19.0938 5.89062C19.0938 6.45154 19.5485 6.90625 20.1094 6.90625Z" fill="white"/>
</svg>
