<svg width="27" height="27" viewBox="0 0 27 27" fill="none" xmlns="http://www.w3.org/2000/svg">
<path d="M21.0282 5.90436C19.1494 4.03256 16.65 3.00107 13.9899 3C11.3358 3 8.83246 4.03058 6.94128 5.90192C5.04675 7.77646 4.00244 10.2676 4 12.9074V12.9104V12.9123C4.00031 14.51 4.42007 16.1218 5.21689 17.593L4.02731 23L9.49652 21.756C10.8817 22.454 12.4273 22.8221 13.9861 22.8227H13.9901C16.6437 22.8227 19.1471 21.792 21.0386 19.9205C22.9348 18.0444 23.9796 15.5565 23.9808 12.915C23.9815 10.2922 22.9331 7.8024 21.0282 5.90436ZM13.9899 21.2617H13.9864C12.5867 21.2611 11.1999 20.9097 9.97595 20.2452L9.71732 20.1048L6.08054 20.932L6.87048 17.3419L6.7182 17.0793C5.96106 15.7736 5.56097 14.3322 5.56097 12.9106C5.56387 8.30899 9.3447 4.56097 13.9896 4.56097C16.2336 4.56189 18.342 5.43179 19.9265 7.01016C21.5349 8.61295 22.4204 10.7098 22.4196 12.9146C22.4178 17.5172 18.6362 21.2617 13.9899 21.2617Z" fill="#0CBAD0"/>
<path d="M11.2719 8.5415H10.834C10.6815 8.5415 10.434 8.59857 10.2247 8.82639C10.0152 9.05435 9.4248 9.60535 9.4248 10.726C9.4248 11.8466 10.2437 12.9293 10.3579 13.0815C10.4722 13.2334 11.9387 15.6065 14.2614 16.5194C16.1918 17.2781 16.5847 17.1272 17.0035 17.0892C17.4225 17.0513 18.3556 16.5383 18.5461 16.0066C18.7365 15.4748 18.7365 15.0189 18.6794 14.9236C18.6222 14.8287 18.4698 14.7718 18.2413 14.658C18.0128 14.544 16.8928 13.9837 16.6833 13.9076C16.4738 13.8317 16.3215 13.7937 16.169 14.0219C16.0166 14.2495 15.5678 14.7762 15.4345 14.9282C15.3013 15.0804 15.1679 15.0994 14.9393 14.9854C14.7108 14.8712 13.9823 14.6264 13.1093 13.8506C12.4299 13.2469 11.9584 12.4769 11.825 12.2489C11.6918 12.0211 11.8108 11.8978 11.9254 11.7841C12.0281 11.6822 12.1668 11.5428 12.2811 11.4099C12.3952 11.2768 12.4277 11.1819 12.504 11.0299C12.5802 10.8779 12.542 10.7449 12.485 10.631C12.4277 10.5171 11.9892 9.39081 11.7859 8.94037H11.7861C11.6149 8.56104 11.4347 8.54822 11.2719 8.5415Z" fill="#0CBAD0"/>
</svg>
