<svg width="26" height="25" viewBox="0 0 26 25" fill="none" xmlns="http://www.w3.org/2000/svg">
<path d="M3.38913 3.80652H22.2028C23.3076 3.80652 24.209 4.7069 24.209 5.81271V19.1874C24.209 20.2894 23.3116 21.1935 22.2028 21.1935H3.38913C2.28706 21.1935 1.38294 20.2962 1.38294 19.1874V5.81271C1.38294 4.71064 2.28028 3.80652 3.38913 3.80652ZM3.66616 5.14398L12.7534 14.2313L21.9193 5.14398H3.66616ZM22.8715 18.9104V6.08328L16.4303 12.4692L22.8715 18.9104ZM21.9258 19.8561L15.4806 13.4108L13.2222 15.6499C12.9607 15.9091 12.5389 15.9082 12.2785 15.6478L10.0765 13.4458L3.66612 19.8561H21.9258ZM2.7204 18.9104L9.13073 12.5L2.7204 6.08966V18.9104Z" fill="#0CBAD0"/>
</svg>
