<svg width="22" height="23" viewBox="0 0 22 23" fill="none" xmlns="http://www.w3.org/2000/svg">
<g clip-path="url(#clip0_245_1441)">
<path d="M15.6483 0.892822H6.66899C3.2367 0.892822 0.444336 3.68519 0.444336 7.11748V16.0967C0.444336 19.529 3.2367 22.3214 6.66899 22.3214H15.6482C16.6385 22.3214 17.5856 22.0954 18.4632 21.6497C19.2994 21.225 20.0418 20.6047 20.61 19.8557C20.8893 19.4874 20.8173 18.9624 20.449 18.6829C20.0808 18.4036 19.5557 18.4755 19.2763 18.8439C18.4068 19.99 17.0844 20.6473 15.6483 20.6473H6.66899C4.1598 20.6473 2.11844 18.6059 2.11844 16.0967V7.11748C2.11844 4.60829 4.1598 2.56693 6.66899 2.56693H15.6482C18.1574 2.56693 20.1988 4.60829 20.1988 7.11748V15.2483C20.1988 15.7106 20.5735 16.0853 21.0358 16.0853C21.4981 16.0853 21.8729 15.7106 21.8729 15.2483V7.11748C21.8729 3.68519 19.0805 0.892822 15.6483 0.892822Z" fill="#0CBAD0"/>
<path d="M11.1585 5.83142C7.97374 5.83142 5.38281 8.42235 5.38281 11.6071C5.38281 14.7918 7.97374 17.3827 11.1585 17.3827C14.3432 17.3827 16.9341 14.7918 16.9341 11.6071C16.9341 8.42235 14.3432 5.83142 11.1585 5.83142ZM11.1585 15.7086C8.89688 15.7086 7.05692 13.8687 7.05692 11.6071C7.05692 9.34549 8.89688 7.50553 11.1585 7.50553C13.4201 7.50553 15.26 9.34549 15.26 11.6071C15.26 13.8687 13.4201 15.7086 11.1585 15.7086Z" fill="#0CBAD0"/>
<path d="M17.0182 6.58475C17.4805 6.58475 17.8553 6.20999 17.8553 5.7477C17.8553 5.28541 17.4805 4.91064 17.0182 4.91064C16.5559 4.91064 16.1812 5.28541 16.1812 5.7477C16.1812 6.20999 16.5559 6.58475 17.0182 6.58475Z" fill="#0CBAD0"/>
</g>
<defs>
<clipPath id="clip0_245_1441">
<rect width="21.4285" height="21.4285" fill="white" transform="translate(0.444336 0.892822)"/>
</clipPath>
</defs>
</svg>
