<svg width="25" height="25" viewBox="0 0 25 25" fill="none" xmlns="http://www.w3.org/2000/svg">
<path d="M12.5484 12.3186C11.599 12.3186 10.6493 11.9571 9.92661 11.2343C8.48084 9.78868 8.48084 7.43635 9.92661 5.99058C10.6268 5.29021 11.558 4.90454 12.5484 4.90454C13.5389 4.90454 14.4699 5.2904 15.1703 5.99058C16.6161 7.43635 16.6161 9.78868 15.1703 11.2343C14.4474 11.9571 13.4979 12.3186 12.5484 12.3186ZM12.5484 6.37224C11.9745 6.37224 11.4006 6.59063 10.9636 7.02761C10.0897 7.90155 10.0897 9.32348 10.9636 10.1974C11.3869 10.6207 11.9497 10.8537 12.5484 10.8537C13.1472 10.8537 13.71 10.6207 14.1333 10.1974C15.0072 9.32348 15.0072 7.90155 14.1333 7.02761C13.6963 6.59063 13.1224 6.37224 12.5484 6.37224Z" fill="#0CBAD0"/>
<path d="M12.5559 25L11.9888 24.3339C11.6569 23.9439 3.85742 14.7123 3.85742 8.68987C3.85742 3.89823 7.75565 0 12.5473 0C17.3389 0 21.2372 3.89823 21.2372 8.68987C21.2372 14.4161 13.4445 23.9235 13.1128 24.3253L12.5559 25ZM12.5473 1.46656C8.56437 1.46656 5.32398 4.70695 5.32398 8.68987C5.32398 10.9283 6.65874 14.1678 9.18407 18.0582C10.4946 20.0771 11.8143 21.7868 12.5393 22.6917C13.2654 21.7621 14.5977 19.996 15.9164 17.9388C18.4379 14.0056 19.7706 10.8072 19.7706 8.68987C19.7706 4.70695 16.5302 1.46656 12.5473 1.46656Z" fill="#0CBAD0"/>
</svg>
