<svg width="26" height="25" viewBox="0 0 26 25" fill="none" xmlns="http://www.w3.org/2000/svg">
<path d="M20.6879 4.40166C18.5415 2.26538 15.6862 1.08813 12.6474 1.08691C9.6153 1.08691 6.75547 2.26312 4.59499 4.39888C2.43067 6.5383 1.23765 9.38145 1.23486 12.3942V12.3977V12.3998C1.23521 14.2233 1.71476 16.0629 2.62504 17.742L1.26607 23.913L7.51409 22.4931C9.09654 23.2899 10.8622 23.7099 12.643 23.7106H12.6475C15.6791 23.7106 18.5389 22.5342 20.6997 20.3983C22.866 18.2571 24.0595 15.4176 24.0609 12.4029C24.0618 9.40949 22.8641 6.5679 20.6879 4.40166ZM12.6474 21.9291H12.6434C11.0444 21.9284 9.45999 21.5273 8.0618 20.7689L7.76633 20.6087L3.61167 21.5527L4.51411 17.4553L4.34014 17.1556C3.47518 15.6654 3.01812 14.0204 3.01812 12.3979C3.02143 7.14608 7.34065 2.86846 12.647 2.86846C15.2105 2.8695 17.6192 3.86233 19.4293 5.66372C21.2668 7.49298 22.2784 9.88614 22.2775 12.4024C22.2754 17.6554 17.9553 21.9291 12.6474 21.9291Z" fill="#0CBAD0"/>
<path d="M9.23755 6.92664H8.69014C8.4996 6.92664 8.19023 6.99797 7.92854 7.28274C7.66666 7.56769 6.92871 8.25644 6.92871 9.65719C6.92871 11.0579 7.95238 12.4114 8.09505 12.6016C8.23791 12.7915 10.0711 15.7578 12.9744 16.899C15.3874 17.8473 15.8785 17.6587 16.4021 17.6112C16.9259 17.5639 18.0922 16.9227 18.3303 16.2579C18.5683 15.5932 18.5683 15.0233 18.497 14.9043C18.4254 14.7857 18.2349 14.7145 17.9494 14.5722C17.6636 14.4298 16.2636 13.7294 16.0018 13.6342C15.7399 13.5394 15.5495 13.4919 15.359 13.7771C15.1684 14.0616 14.6075 14.7201 14.4408 14.91C14.2743 15.1002 14.1076 15.124 13.8219 14.9815C13.5361 14.8387 12.6256 14.5327 11.5344 13.5631C10.685 12.8083 10.0957 11.8459 9.92897 11.5609C9.76245 11.2761 9.91123 11.122 10.0545 10.9799C10.1828 10.8525 10.3562 10.6782 10.4991 10.5121C10.6417 10.3457 10.6824 10.2271 10.7777 10.0371C10.8729 9.84716 10.8252 9.68084 10.7539 9.53855C10.6824 9.39608 10.1342 7.98826 9.88014 7.42522H9.88033C9.66632 6.95105 9.44107 6.93503 9.23755 6.92664Z" fill="#0CBAD0"/>
</svg>
