<svg width="26" height="25" viewBox="0 0 26 25" fill="none" xmlns="http://www.w3.org/2000/svg">
<g clip-path="url(#clip0_245_1451)">
<path d="M16.649 11.3765L11.126 8.35453C10.8084 8.18077 10.433 8.18725 10.1218 8.37169C9.81029 8.55632 9.62451 8.88248 9.62451 9.24449V15.2366C9.62451 15.5969 9.80914 15.9225 10.1185 16.1073C10.2801 16.2038 10.4592 16.2523 10.6386 16.2523C10.8031 16.2523 10.9678 16.2116 11.1195 16.13L16.6427 13.1601C16.9706 12.9837 17.1753 12.6428 17.1768 12.2703C17.1781 11.8978 16.976 11.5554 16.649 11.3765ZM11.0895 14.4828V10.0044L15.2174 12.2631L11.0895 14.4828Z" fill="#0CBAD0"/>
<path d="M25.1173 7.49645L25.1161 7.485C25.0949 7.28378 24.8842 5.49392 24.0141 4.58355C23.0083 3.51276 21.8681 3.38268 21.3198 3.32031C21.2744 3.31516 21.2328 3.31039 21.1956 3.30543L21.1519 3.30086C17.8469 3.06053 12.8556 3.02773 12.8056 3.02753L12.8012 3.02734L12.7968 3.02753C12.7468 3.02773 7.75553 3.06053 4.42074 3.30086L4.37668 3.30543C4.3412 3.3102 4.3021 3.31459 4.25957 3.31955C3.7175 3.38211 2.5895 3.51238 1.5809 4.62188C0.752164 5.52253 0.512603 7.27405 0.487998 7.47089L0.485137 7.49645C0.477698 7.58018 0.30127 9.57354 0.30127 11.5747V13.4455C0.30127 15.4466 0.477698 17.44 0.485137 17.5239L0.486472 17.5365C0.507643 17.7345 0.718214 19.4916 1.58434 20.4023C2.52999 21.4372 3.7257 21.5742 4.36886 21.6478C4.47052 21.6594 4.55807 21.6694 4.61777 21.6798L4.67556 21.6879C6.58385 21.8694 12.567 21.9589 12.8207 21.9625L12.8283 21.9627L12.8359 21.9625C12.8859 21.9623 17.877 21.9295 21.182 21.6892L21.2257 21.6846C21.2675 21.6791 21.3144 21.6741 21.3659 21.6688C21.9049 21.6116 23.0268 21.4927 24.0215 20.3983C24.8502 19.4975 25.09 17.7459 25.1144 17.5493L25.1173 17.5237C25.1247 17.4398 25.3013 15.4466 25.3013 13.4455V11.5747C25.3011 9.57354 25.1247 7.58037 25.1173 7.49645ZM23.8361 13.4455C23.8361 15.2977 23.6744 17.2052 23.6591 17.3803C23.5969 17.8627 23.3442 18.9708 22.9404 19.4097C22.3179 20.0947 21.6783 20.1626 21.2114 20.212C21.155 20.2179 21.1027 20.2236 21.0554 20.2295C17.8587 20.4607 13.0558 20.4961 12.8346 20.4975C12.5864 20.4939 6.69085 20.4036 4.84073 20.2318C4.74594 20.2163 4.64352 20.2045 4.53556 20.1923C3.98796 20.1296 3.23838 20.0437 2.66198 19.4097L2.64844 19.3952C2.25171 18.9819 2.00624 17.9456 1.94387 17.386C1.93223 17.2537 1.7663 15.3236 1.7663 13.4455V11.5747C1.7663 9.72461 1.92766 7.81917 1.9433 7.64045C2.01749 7.07225 2.27498 6.03122 2.66198 5.61046C3.30361 4.90474 3.98014 4.82654 4.4276 4.77485C4.47033 4.76989 4.51019 4.76532 4.547 4.76055C7.79024 4.52823 12.6276 4.49371 12.8012 4.49238C12.9748 4.49352 17.8104 4.52823 21.0249 4.76055C21.0644 4.76551 21.1075 4.77047 21.1538 4.77581C21.6141 4.82826 22.3097 4.9076 22.948 5.58853L22.954 5.59482C23.3507 6.00814 23.5962 7.06252 23.6585 7.63339C23.6696 7.75832 23.8361 9.69256 23.8361 11.5747V13.4455Z" fill="#0CBAD0"/>
</g>
<defs>
<clipPath id="clip0_245_1451">
<rect width="25" height="25" fill="white" transform="translate(0.30127)"/>
</clipPath>
</defs>
</svg>
