<svg width="25" height="25" viewBox="0 0 25 25" fill="none" xmlns="http://www.w3.org/2000/svg">
<g clip-path="url(#clip0_164_1853)">
<path d="M18 1H6.00002C4.897 1 4 1.89695 4 3.00002V7.50002C4 7.77639 4.22364 8.00003 4.50002 8.00003H19.5C19.7764 8.00003 20 7.77639 20 7.50002V3.00002C20 1.89695 19.103 1 18 1ZM9.50003 6.00002H6.50003C6.29786 6.00002 6.11528 5.87842 6.03813 5.69144C5.9605 5.50441 6.00344 5.28958 6.14655 5.14652L6.64656 4.6465C6.84189 4.45117 7.1583 4.45117 7.35358 4.6465C7.45122 4.74414 7.50006 4.87211 7.50006 5.00003H9.50008C9.77645 5.00003 10.0001 5.22367 10.0001 5.50005C10.0001 5.77642 9.77641 6.00002 9.50003 6.00002Z" fill="white"/>
<path d="M19.5 9.00003H4.50002C4.22364 9.00003 4 9.22367 4 9.50005V22C4 23.103 4.89695 24 6.00002 24V24.5C6.00002 24.7764 6.22366 25.0001 6.50003 25.0001H7.50002C7.77639 25.0001 8.00003 24.7764 8.00003 24.5V24H16V24.5C16 24.7764 16.2237 25.0001 16.5001 25.0001H17.5C17.7764 25.0001 18.0001 24.7764 18.0001 24.5V24C19.1031 24 20.0001 23.1031 20.0001 22V9.5C20 9.22367 19.7764 9.00003 19.5 9.00003ZM9.50003 12H6.50003C6.29786 12 6.11528 11.8784 6.03813 11.6915C5.9605 11.5044 6.00344 11.2896 6.14655 11.1465L6.64656 10.6465C6.84189 10.4512 7.1583 10.4512 7.35358 10.6465C7.45122 10.7442 7.50006 10.8721 7.50006 11H9.50008C9.77645 11 10.0001 11.2237 10.0001 11.5001C10.0001 11.7764 9.77641 12 9.50003 12Z" fill="white"/>
</g>
<defs>
<clipPath id="clip0_164_1853">
<rect width="24" height="24" fill="white" transform="translate(0 1)"/>
</clipPath>
</defs>
</svg>
