<svg width="25" height="25" viewBox="0 0 25 25" fill="none" xmlns="http://www.w3.org/2000/svg">
<path d="M12 9.48438C10.4489 9.48438 9.1875 10.7457 9.1875 12.2969C9.1875 13.848 10.4489 15.1094 12 15.1094C13.5511 15.1094 14.8125 13.848 14.8125 12.2969C14.8125 10.7457 13.5511 9.48438 12 9.48438Z" fill="white"/>
<path d="M23.4122 10.9002L21.5444 10.5967C21.3102 9.66423 20.9422 8.77848 20.4471 7.95245L21.521 6.448C21.7208 6.16853 21.6893 5.78538 21.4462 5.54233L19.4576 3.5538C19.2132 3.31005 18.8307 3.27775 18.552 3.47894L17.0475 4.55284C16.2215 4.05775 15.3357 3.68973 14.4032 3.45559L14.0997 1.58772C14.0435 1.24858 13.7503 1 13.4062 1H10.5938C10.2497 1 9.95653 1.24858 9.90023 1.58777L9.59672 3.45564C8.66423 3.68978 7.77848 4.05784 6.95245 4.55289L5.448 3.47898C5.16853 3.2778 4.78472 3.31005 4.54233 3.55384L2.5538 5.54233C2.3107 5.78542 2.27916 6.16853 2.47894 6.448L3.55284 7.95245C3.05775 8.77848 2.68973 9.66428 2.45559 10.5967L0.587719 10.9002C0.248578 10.9565 0 11.2497 0 11.5938V14.4062C0 14.7503 0.248578 15.0435 0.587766 15.0998L2.45564 15.4033C2.68978 16.3358 3.05784 17.2215 3.55289 18.0475L2.47898 19.552C2.27916 19.8315 2.31075 20.2146 2.55384 20.4577L4.54238 22.4462C4.78477 22.6886 5.16858 22.7195 5.44805 22.5211L6.9525 21.4472C7.77853 21.9422 8.66433 22.3103 9.59677 22.5444L9.90028 24.4123C9.95653 24.7514 10.2497 25 10.5938 25H13.4062C13.7503 25 14.0435 24.7514 14.0998 24.4122L14.4033 22.5444C15.3358 22.3102 16.2215 21.9422 17.0475 21.4471L18.552 22.521C18.8308 22.7194 19.2132 22.6885 19.4577 22.4462L21.4462 20.4576C21.6893 20.2145 21.7208 19.8314 21.5211 19.552L20.4472 18.0475C20.9422 17.2215 21.3103 16.3357 21.5444 15.4032L23.4123 15.0997C23.7514 15.0435 24 14.7503 24 14.4062V11.5938C24 11.2497 23.7514 10.9565 23.4122 10.9002ZM12 20.7344C7.73527 20.7344 4.26562 17.2647 4.26562 13C4.26562 8.73527 7.73527 5.26562 12 5.26562C16.2647 5.26562 19.7344 8.73527 19.7344 13C19.7344 17.2647 16.2647 20.7344 12 20.7344Z" fill="white"/>
<path d="M15.2481 14.9562C14.4738 15.9 13.3134 16.5156 12.0001 16.5156C10.6868 16.5156 9.52637 15.9 8.75209 14.9562C8.07808 15.5536 7.5864 16.3367 7.31519 17.2154C8.47436 18.5025 10.1356 19.3281 12.0001 19.3281C13.8646 19.3281 15.5259 18.5025 16.685 17.2154C16.4138 16.3367 15.9221 15.5536 15.2481 14.9562Z" fill="white"/>
</svg>
