<svg width="25" height="25" viewBox="0 0 25 25" fill="none" xmlns="http://www.w3.org/2000/svg">
<g clip-path="url(#clip0_164_1833)">
<path d="M24.7941 18.5396L22.2176 15.9628C21.9519 16.522 21.4437 16.9517 20.7989 17.1048L20.4479 17.1882L20.3645 17.5395C20.2221 18.1394 19.5521 19.2692 18.1417 19.1545L17.7817 19.1253L17.5939 19.4335C17.2778 19.9523 16.7471 20.3068 16.1572 20.412L19.5397 23.794C19.712 23.9664 19.9612 24.0372 20.1984 23.9812C20.4356 23.9252 20.6269 23.7504 20.7039 23.5192L21.6577 20.6576L24.5193 19.7038C24.7505 19.6268 24.9253 19.4355 24.9813 19.1983C25.0372 18.9612 24.9664 18.7119 24.7941 18.5396Z" fill="white"/>
<path d="M8.40615 19.4335L8.21837 19.1253L7.85832 19.1546C6.44799 19.2692 5.77796 18.1395 5.63551 17.5395L5.55212 17.1882L5.20112 17.1049C4.55635 16.9517 4.04818 16.522 3.78249 15.9629L1.20596 18.5396C1.03365 18.7119 0.96282 18.9612 1.01884 19.1984C1.0748 19.4355 1.24965 19.6268 1.48079 19.7039L4.34241 20.6576L5.29618 23.5193C5.37324 23.7504 5.56449 23.9252 5.80168 23.9812C6.03887 24.0372 6.2881 23.9664 6.46041 23.7941L9.84287 20.412C9.2529 20.3068 8.72227 19.9523 8.40615 19.4335Z" fill="white"/>
<path d="M16.393 18.7017L17.0318 17.6536L18.2552 17.753C18.6006 17.781 18.916 17.5524 18.9962 17.2146L19.2798 16.0203L20.4738 15.7367C20.8115 15.6565 21.0402 15.3417 21.0121 14.9957L20.9127 13.7725L21.9608 13.1338C22.2572 12.9532 22.3775 12.5832 22.2439 12.2628L21.7716 11.13L22.5709 10.1987C22.797 9.93531 22.797 9.54629 22.571 9.28286L21.7716 8.35121L22.2439 7.21834C22.3775 6.89795 22.2572 6.52796 21.9608 6.34731L20.9127 5.70859L21.0121 4.48543C21.0402 4.1394 20.8115 3.82464 20.4738 3.74439L19.2798 3.46084L18.9962 2.26651C18.916 1.92868 18.6006 1.70017 18.2552 1.72815L17.0318 1.82753L16.393 0.779402C16.2123 0.482871 15.8422 0.362824 15.5219 0.496371L14.3892 0.968965L13.4579 0.169559C13.1945 -0.0565195 12.8054 -0.0565195 12.542 0.169559L11.6108 0.968871L10.4781 0.496277C10.1576 0.362637 9.7877 0.482824 9.607 0.779309L8.96823 1.82743L7.74475 1.72806C7.39872 1.70036 7.084 1.92859 7.0038 2.26642L6.72016 3.46075L5.5262 3.74439C5.18847 3.82464 4.95977 4.1394 4.98789 4.48543L5.08727 5.70859L4.03919 6.34731C3.74275 6.52796 3.62252 6.8979 3.75611 7.21834L4.22842 8.35121L3.42902 9.28286C3.20298 9.54629 3.20303 9.93531 3.42911 10.1987L4.22842 11.13L3.7562 12.2628C3.62261 12.5832 3.74284 12.9532 4.03928 13.1338L5.08736 13.7725L4.98798 14.9957C4.95991 15.3417 5.18856 15.6565 5.5263 15.7367L6.72025 16.0203L7.00389 17.2146C7.08414 17.5524 7.39886 17.7807 7.74484 17.753L8.96833 17.6536L9.60709 18.7017C9.78775 18.9982 10.1577 19.1184 10.4782 18.9848L11.6109 18.5122L12.5421 19.3114C12.8055 19.5375 13.1946 19.5375 13.458 19.3114L14.3892 18.5122L15.5219 18.9848C15.8422 19.1183 16.2123 18.9982 16.393 18.7017ZM12.7441 14.7566C12.4696 15.0311 12.0243 15.0312 11.7497 14.7566L7.6075 10.6144C7.33291 10.3398 7.33291 9.89462 7.6075 9.62003L9.73769 7.48979C10.0122 7.2152 10.4575 7.2152 10.732 7.48979L12.2469 9.00456L15.6445 5.60697C15.919 5.33237 16.3642 5.33237 16.6388 5.60697L18.769 7.73715C19.0436 8.01175 19.0436 8.45692 18.769 8.73151L12.7441 14.7566Z" fill="white"/>
<path d="M12.7441 10.4961C12.4696 10.7707 12.0244 10.7707 11.7498 10.4961L10.2349 8.98135L9.09912 10.1172L12.247 13.265L17.2776 8.23435L16.1418 7.09853L12.7441 10.4961Z" fill="white"/>
</g>
<defs>
<clipPath id="clip0_164_1833">
<rect width="24" height="24" fill="white" transform="translate(1)"/>
</clipPath>
</defs>
</svg>
